<?xml version="1.0" encoding="utf-8"?>
<!-- Generator: Adobe Illustrator 27.7.0, SVG Export Plug-In . SVG Version: 6.00 Build 0)  -->
<svg version="1.1" id="Layer_1" xmlns="http://www.w3.org/2000/svg" xmlns:xlink="http://www.w3.org/1999/xlink" x="0px" y="0px"
	 viewBox="0 0 563 232" style="enable-background:new 0 0 563 232;" xml:space="preserve">
<style type="text/css">
	.st0{fill-rule:evenodd;clip-rule:evenodd;fill:#FFFFFF;}
	.st1{fill:#FFFFFF;}
	.st2{fill:#DB240B;}
	.st3{enable-background:new    ;}
</style>
<g id="Layer_1_00000131354492628101426270000003903335408448944823_">
	<path class="st0" d="M136.9,56.5C104.3,36.4,61,40.4,32.7,68.7c-33,33-33,86.5,0,119.5s86.5,33,119.5,0
		c28.5-28.5,32.4-72.4,11.6-105.1l6.7-4.3c22.8,35.8,18.6,83.8-12.7,115.1C121.7,230,63.1,230,27,193.9C-9,157.7-9,99.2,27.1,63.1
		c30.9-30.9,78.3-35.4,114-13.3L136.9,56.5z"/>
	<path class="st0" d="M164.2,0.7c1.2,0.6,1.7,2.1,1.1,3.3l-20.8,42.2c3.3-1.5,6.9-2.2,10.4-2.1L169.5,24c0.8-1.1,2.4-1.4,3.5-0.6
		s1.4,2.4,0.6,3.5L160.5,45c2.7,0.8,5.3,2.1,7.6,4l19.2-19.2c1-1,2.6-1,3.5,0c1,1,1,2.6,0,3.5l-19.2,19.2c1.8,2.3,3.2,4.9,4,7.6
		L193.7,47c1.1-0.8,2.7-0.6,3.5,0.6c0.8,1.1,0.6,2.7-0.6,3.5l-20.1,14.6c0.1,3.6-0.5,7.1-2.1,10.4l42.2-20.8
		c1.2-0.6,2.7-0.1,3.3,1.1c0.6,1.2,0.1,2.7-1.1,3.3l-55,27.2c-0.1,0.1-0.2,0.1-0.4,0.1c-8.3,3.8-18.5,2.3-25.4-4.5
		c-6.9-6.9-8.4-17-4.5-25.4c0-0.1,0.1-0.2,0.1-0.4l27.2-55C161.5,0.6,163,0.1,164.2,0.7z M166.4,54.3c-6.8-6.8-17.9-6.8-24.7,0
		s-6.8,17.9,0,24.7s17.9,6.8,24.7,0S173.2,61.1,166.4,54.3z"/>
	<g>
		<path class="st1" d="M255.9,140.3c0,4.1-1.6,6.4-5.5,6.4c-4.4,0-5.8-2.9-5.8-7.6V122H237v18.4c0,9.3,4.1,14.3,13.5,14.3
			c9.6,0,13.3-5.1,13.3-14.3V128c0-7.6-0.9-10.2-3.8-13.8c-3.3-4.1-9.3-9.1-13.1-14.1c-1.6-2-1.9-3-1.9-6.7V80.6
			c0-4.1,1.9-6.2,5.6-6.2c4.3,0,5.5,2.9,5.5,7.2v14.7h7.5V80.6c0-9.6-3.5-14.3-12.8-14.3c-9.2,0-13.8,4.6-13.8,14.3v12.9
			c0,5.8,0.2,7.9,2.8,11.2c3,3.9,9,8.9,13.4,14.4c2.1,2.6,2.6,3.7,2.6,8.9L255.9,140.3L255.9,140.3z"/>
		<path class="st1" d="M293.5,97.3c0,5.4-2.2,7.6-6.8,7.6h-5.6V75.3h5.5c5,0,6.9,2.4,6.9,7.6V97.3z M281.2,153.7v-41.1h5.6
			c10.1,0,14.7-4.6,14.7-15.5V82.9c0-10.9-4.7-15.6-14.8-15.6h-13.4v86.4L281.2,153.7L281.2,153.7z"/>
		<path class="st1" d="M334.5,153.7l-11.2-86.4H314l-12,86.4h7.8l1.9-14.5h12.9l1.9,14.5H334.5z M312.6,131.8
			c2-14.8,3.9-29.1,5.7-44.3c1.7,15.2,3.6,29.5,5.4,44.3H312.6z"/>
		<path class="st1" d="M359.4,139.9c0,4.6-1.5,6.8-5.4,6.8c-3.8,0-5.7-2.3-5.7-6.8V81.1c0-4.5,1.9-6.7,5.7-6.7
			c4.1,0,5.4,2.1,5.4,6.7v15.2h7.2V81c0-9.8-4.2-14.7-12.6-14.7c-9.1,0-13.8,4.9-13.8,14.9V140c0,9.8,4.6,14.6,13.8,14.6
			c8.8,0,12.6-4.7,12.6-14.8V122h-7.2V139.9z"/>
		<path class="st1" d="M399.3,153.7v-7.9h-15.4v-32.1h10.5v-8h-10.5V75.3h14.9v-8.1h-22.9v86.4L399.3,153.7L399.3,153.7z"/>
		<path class="st1" d="M454.8,153.7l-11.2-86.4h-9.3l-11.9,86.4h7.8l1.9-14.5H445l1.9,14.5H454.8z M432.9,131.8
			c2-14.8,3.9-29.1,5.7-44.3c1.7,15.2,3.6,29.5,5.4,44.3H432.9z"/>
		<path class="st1" d="M483.1,97.3c0,5.4-2.2,7.6-6.8,7.6h-5.6V75.3h5.5c5,0,6.9,2.4,6.9,7.6V97.3z M470.7,153.7v-41.1h5.6
			c10.1,0,14.7-4.6,14.7-15.5V82.9c0-10.9-4.7-15.6-14.8-15.6h-13.4v86.4L470.7,153.7L470.7,153.7z"/>
		<path class="st1" d="M519.6,97.3c0,5.4-2.2,7.6-6.8,7.6h-5.6V75.3h5.5c5,0,6.9,2.4,6.9,7.6V97.3z M507.2,153.7v-41.1h5.6
			c10.1,0,14.7-4.6,14.7-15.5V82.9c0-10.9-4.7-15.6-14.8-15.6h-13.4v86.4L507.2,153.7L507.2,153.7z"/>
		<path class="st1" d="M554.3,140.3c0,4.1-1.6,6.4-5.5,6.4c-4.4,0-5.8-2.9-5.8-7.6V122h-7.7v18.4c0,9.3,4.1,14.3,13.5,14.3
			c9.6,0,13.3-5.1,13.3-14.3V128c0-7.6-0.9-10.2-3.8-13.8c-3.3-4.1-9.3-9.1-13.1-14.1c-1.6-2-1.9-3-1.9-6.7V80.6
			c0-4.1,1.9-6.2,5.6-6.2c4.3,0,5.5,2.9,5.5,7.2v14.7h7.5V80.6c0-9.6-3.5-14.3-12.8-14.3c-9.2,0-13.8,4.6-13.8,14.3v12.9
			c0,5.8,0.2,7.9,2.8,11.2c3,3.9,9,8.9,13.4,14.4c2.1,2.6,2.6,3.7,2.6,8.9v12.3H554.3z"/>
	</g>
	<path class="st2" d="M366.9,48h-6.7l-6.4-17.2c0.2,1.7,0.4,3.2,0.5,4.5s0.2,2.8,0.2,4.6V48h-4.7V25.8h6.5l6.6,17.2
		c-0.5-2.9-0.7-5.7-0.7-8.3v-9h4.7V48z"/>
	<path class="st2" d="M390.7,48l-1.2-4.8H383l-1,4.8h-5.4l6.7-22.2h6.4l6.7,22.2H390.7z M384,39.4h4.7l-2.3-9.8L384,39.4z"/>
	<path class="st2" d="M413,25.3c1.7,0,3.1,0.2,4.3,0.7c1.2,0.5,2.4,1.2,3.4,2.1l-2.4,2.8c-1.5-1.2-3.1-1.9-4.9-1.9
		c-0.9,0-1.6,0.2-2.2,0.6c-0.5,0.4-0.8,0.9-0.8,1.6c0,0.5,0.1,0.9,0.4,1.2c0.2,0.3,0.7,0.6,1.2,0.9c0.6,0.3,1.5,0.6,2.7,1
		c2.3,0.7,3.9,1.6,5,2.7c1.1,1,1.6,2.5,1.6,4.5c0,1.4-0.4,2.6-1.1,3.7c-0.7,1-1.7,1.9-3,2.5s-2.9,0.9-4.7,0.9s-3.4-0.3-4.8-0.9
		c-1.4-0.6-2.6-1.3-3.6-2.3l2.7-2.9c0.9,0.7,1.7,1.3,2.6,1.6c0.9,0.4,1.9,0.5,3,0.5s1.9-0.2,2.6-0.7c0.6-0.5,1-1.2,1-2
		c0-0.6-0.1-1-0.4-1.4c-0.2-0.4-0.6-0.7-1.2-1s-1.4-0.6-2.5-1c-2.5-0.7-4.2-1.7-5.2-2.8s-1.5-2.5-1.5-4.1c0-1.3,0.3-2.4,1-3.4
		s1.6-1.7,2.8-2.2C410.1,25.6,411.5,25.3,413,25.3z"/>
	<path class="st2" d="M443.7,48l-1.2-4.8H436l-1,4.8h-5.4l6.7-22.2h6.4l6.7,22.2H443.7z M437,39.4h4.7l-2.3-9.8L437,39.4z"/>
	<g>
		<path class="st2" d="M334.2,206.8c-2.1,2.1-5.3,5.6-7.8,8c-2.4-2.4-5.6-5.9-7.8-8c-4.3-4.2-4.3-11.1,0-15.3s11.3-4.2,15.6,0
			C338.5,195.8,338.5,202.6,334.2,206.8z"/>
		<g class="st3">
			<path class="st1" d="M372.7,206.8h-6.1l-1,4.5h-5.1l6.3-20.8h6l6.3,20.8h-5.2L372.7,206.8z M371.8,203.2l-2.2-9.2l-2.2,9.2H371.8
				z"/>
			<path class="st1" d="M392.7,194.2h-5.1v17h-4.9v-17h-5.4v-3.8h15.9L392.7,194.2z"/>
			<path class="st1" d="M406.3,202.3h-6.2v8.9h-4.9v-20.8h4.9v8h6.2v-8h4.9v20.8h-4.9V202.3z"/>
			<path class="st1" d="M420.1,207.4h8.1l-0.5,3.9h-12.5v-20.8h4.9V207.4z"/>
			<path class="st1" d="M447.1,200.8c0,6.8-3.5,10.9-9.4,10.9c-5.8,0-9.4-4-9.4-10.9c0-6.8,3.5-10.9,9.4-10.9
				C443.5,190,447.1,193.9,447.1,200.8z M433.5,200.8c0,5.3,1.5,7.3,4.2,7.3c2.8,0,4.2-2,4.2-7.3c0-5.2-1.4-7.3-4.2-7.3
				C434.9,193.6,433.5,195.6,433.5,200.8z"/>
			<path class="st1" d="M466,211.2h-6.3l-6-16.1c0.2,1.9,0.6,4.6,0.6,8.5v7.6H450v-20.8h6.1l6.1,16.1c-0.3-1.7-0.7-4.4-0.7-7.7v-8.4
				h4.4V211.2z"/>
			<path class="st1" d="M482.1,194h-7.3v5h6.4v3.5h-6.4v5.3h7.8v3.5h-12.7v-20.8h12.7L482.1,194z"/>
		</g>
	</g>
</g>
</svg>
