<svg xmlns="http://www.w3.org/2000/svg" xmlns:xlink="http://www.w3.org/1999/xlink" viewBox="0 0 563 232" xmlns:v="https://vecta.io/nano"><g fill-rule="evenodd" fill="#fff"><path d="M136.9 56.5C104.3 36.4 61 40.4 32.7 68.7c-33 33-33 86.5 0 119.5s86.5 33 119.5 0c28.5-28.5 32.4-72.4 11.6-105.1l6.7-4.3c22.8 35.8 18.6 83.8-12.7 115.1-36.1 36.1-94.7 36.1-130.8 0-36-36.2-36-94.7.1-130.8 30.9-30.9 78.3-35.4 114-13.3l-4.2 6.7z"/><path d="M164.2.7c1.2.6 1.7 2.1 1.1 3.3l-20.8 42.2c3.3-1.5 6.9-2.2 10.4-2.1L169.5 24c.8-1.1 2.4-1.4 3.5-.6s1.4 2.4.6 3.5L160.5 45c2.7.8 5.3 2.1 7.6 4l19.2-19.2c1-1 2.6-1 3.5 0 1 1 1 2.6 0 3.5l-19.2 19.2c1.8 2.3 3.2 4.9 4 7.6L193.7 47c1.1-.8 2.7-.6 3.5.6.8 1.1.6 2.7-.6 3.5l-20.1 14.6c.1 3.6-.5 7.1-2.1 10.4l42.2-20.8c1.2-.6 2.7-.1 3.3 1.1s.1 2.7-1.1 3.3l-55 27.2c-.1.1-.2.1-.4.1-8.3 3.8-18.5 2.3-25.4-4.5-6.9-6.9-8.4-17-4.5-25.4 0-.1.1-.2.1-.4l27.2-55c.7-1.1 2.2-1.6 3.4-1zm2.2 53.6c-6.8-6.8-17.9-6.8-24.7 0s-6.8 17.9 0 24.7 17.9 6.8 24.7 0 6.8-17.9 0-24.7z"/></g><path d="M255.9 140.3c0 4.1-1.6 6.4-5.5 6.4-4.4 0-5.8-2.9-5.8-7.6V122H237v18.4c0 9.3 4.1 14.3 13.5 14.3 9.6 0 13.3-5.1 13.3-14.3V128c0-7.6-.9-10.2-3.8-13.8-3.3-4.1-9.3-9.1-13.1-14.1-1.6-2-1.9-3-1.9-6.7V80.6c0-4.1 1.9-6.2 5.6-6.2 4.3 0 5.5 2.9 5.5 7.2v14.7h7.5V80.6c0-9.6-3.5-14.3-12.8-14.3-9.2 0-13.8 4.6-13.8 14.3v12.9c0 5.8.2 7.9 2.8 11.2 3 3.9 9 8.9 13.4 14.4 2.1 2.6 2.6 3.7 2.6 8.9l.1 12.3h0zm37.6-43c0 5.4-2.2 7.6-6.8 7.6h-5.6V75.3h5.5c5 0 6.9 2.4 6.9 7.6v14.4zm-12.3 56.4v-41.1h5.6c10.1 0 14.7-4.6 14.7-15.5V82.9c0-10.9-4.7-15.6-14.8-15.6h-13.4v86.4h7.9 0zm53.3 0l-11.2-86.4H314l-12 86.4h7.8l1.9-14.5h12.9l1.9 14.5h8zm-21.9-21.9l5.7-44.3 5.4 44.3h-11.1zm46.8 8.1c0 4.6-1.5 6.8-5.4 6.8-3.8 0-5.7-2.3-5.7-6.8V81.1c0-4.5 1.9-6.7 5.7-6.7 4.1 0 5.4 2.1 5.4 6.7v15.2h7.2V81c0-9.8-4.2-14.7-12.6-14.7-9.1 0-13.8 4.9-13.8 14.9V140c0 9.8 4.6 14.6 13.8 14.6 8.8 0 12.6-4.7 12.6-14.8V122h-7.2v17.9zm39.9 13.8v-7.9h-15.4v-32.1h10.5v-8h-10.5V75.3h14.9v-8.1h-22.9v86.4l23.4.1h0zm55.5 0l-11.2-86.4h-9.3l-11.9 86.4h7.8l1.9-14.5H445l1.9 14.5h7.9zm-21.9-21.9l5.7-44.3 5.4 44.3h-11.1z" fill="#fff"/><use xlink:href="#B" fill="#fff"/><use xlink:href="#B" x="36.5" fill="#fff"/><path d="M554.3 140.3c0 4.1-1.6 6.4-5.5 6.4-4.4 0-5.8-2.9-5.8-7.6V122h-7.7v18.4c0 9.3 4.1 14.3 13.5 14.3 9.6 0 13.3-5.1 13.3-14.3V128c0-7.6-.9-10.2-3.8-13.8-3.3-4.1-9.3-9.1-13.1-14.1-1.6-2-1.9-3-1.9-6.7V80.6c0-4.1 1.9-6.2 5.6-6.2 4.3 0 5.5 2.9 5.5 7.2v14.7h7.5V80.6c0-9.6-3.5-14.3-12.8-14.3-9.2 0-13.8 4.6-13.8 14.3v12.9c0 5.8.2 7.9 2.8 11.2 3 3.9 9 8.9 13.4 14.4 2.1 2.6 2.6 3.7 2.6 8.9v12.3h.2z" fill="#fff"/><path d="M366.9 48h-6.7l-6.4-17.2.5 4.5.2 4.6V48h-4.7V25.8h6.5l6.6 17.2c-.5-2.9-.7-5.7-.7-8.3v-9h4.7V48zm23.8 0l-1.2-4.8H383l-1 4.8h-5.4l6.7-22.2h6.4l6.7 22.2h-5.7zm-6.7-8.6h4.7l-2.3-9.8-2.4 9.8zm29-14.1c1.7 0 3.1.2 4.3.7s2.4 1.2 3.4 2.1l-2.4 2.8c-1.5-1.2-3.1-1.9-4.9-1.9-.9 0-1.6.2-2.2.6-.5.4-.8.9-.8 1.6 0 .5.1.9.4 1.2.2.3.7.6 1.2.9.6.3 1.5.6 2.7 1 2.3.7 3.9 1.6 5 2.7 1.1 1 1.6 2.5 1.6 4.5 0 1.4-.4 2.6-1.1 3.7a7.47 7.47 0 0 1-3 2.5c-1.3.6-2.9.9-4.7.9s-3.4-.3-4.8-.9-2.6-1.3-3.6-2.3l2.7-2.9c.9.7 1.7 1.3 2.6 1.6.9.4 1.9.5 3 .5s1.9-.2 2.6-.7c.6-.5 1-1.2 1-2 0-.6-.1-1-.4-1.4-.2-.4-.6-.7-1.2-1s-1.4-.6-2.5-1c-2.5-.7-4.2-1.7-5.2-2.8s-1.5-2.5-1.5-4.1c0-1.3.3-2.4 1-3.4s1.6-1.7 2.8-2.2a11.92 11.92 0 0 1 4-.7zM443.7 48l-1.2-4.8H436l-1 4.8h-5.4l6.7-22.2h6.4l6.7 22.2h-5.7zm-6.7-8.6h4.7l-2.3-9.8-2.4 9.8zM334.2 206.8l-7.8 8-7.8-8a10.69 10.69 0 0 1 0-15.3c4.3-4.2 11.3-4.2 15.6 0 4.3 4.3 4.3 11.1 0 15.3z" fill="#db240b"/><path d="M372.7 206.8h-6.1l-1 4.5h-5.1l6.3-20.8h6l6.3 20.8h-5.2l-1.2-4.5zm-.9-3.6l-2.2-9.2-2.2 9.2h4.4zm20.9-9h-5.1v17h-4.9v-17h-5.4v-3.8h15.9l-.5 3.8zm13.6 8.1h-6.2v8.9h-4.9v-20.8h4.9v8h6.2v-8h4.9v20.8h-4.9v-8.9zm13.8 5.1h8.1l-.5 3.9h-12.5v-20.8h4.9v16.9zm27-6.6c0 6.8-3.5 10.9-9.4 10.9-5.8 0-9.4-4-9.4-10.9 0-6.8 3.5-10.9 9.4-10.9 5.8.1 9.4 4 9.4 10.9zm-13.6 0c0 5.3 1.5 7.3 4.2 7.3 2.8 0 4.2-2 4.2-7.3 0-5.2-1.4-7.3-4.2-7.3-2.8.1-4.2 2.1-4.2 7.3zm32.5 10.4h-6.3l-6-16.1c.2 1.9.6 4.6.6 8.5v7.6H450v-20.8h6.1l6.1 16.1c-.3-1.7-.7-4.4-.7-7.7v-8.4h4.4v20.8zm16.1-17.2h-7.3v5h6.4v3.5h-6.4v5.3h7.8v3.5h-12.7v-20.8h12.7l-.5 3.5z" enable-background="new" fill="#fff"/><defs ><path id="B" d="M483.1 97.3c0 5.4-2.2 7.6-6.8 7.6h-5.6V75.3h5.5c5 0 6.9 2.4 6.9 7.6v14.4zm-12.4 56.4v-41.1h5.6c10.1 0 14.7-4.6 14.7-15.5V82.9c0-10.9-4.7-15.6-14.8-15.6h-13.4v86.4h7.9 0z"/></defs></svg>