<svg xmlns="http://www.w3.org/2000/svg" height="290" width="300" xmlns:v="https://vecta.io/nano"><g transform="matrix(0 1.25 1.25 0 -360.371 -167.036)"><path d="M170.454 343.769l10.647-5.239 4.034 18.123-10.561 5.152-4.12-18.036zm5.067 21.986l10.645-5.155 4.12 18.125-10.562 5.061-4.203-18.031zm13.563 58.823l10.645-5.066 4.208 18.123-10.645 5.15-4.208-18.208zm5.155 22.072l10.642-5.152 4.123 18.205-10.562 5.066-4.203-18.119zm68.765-20.266c0-1.031.43-1.974 1.205-2.833.686-.69 1.801-1.203 2.916-1.203s2.062.513 2.92 1.203c.686.858 1.203 1.802 1.203 2.833 0 1.203-.517 2.319-1.203 3.005-.858.858-1.801 1.203-2.92 1.203s-2.23-.345-2.916-1.203c-.774-.686-1.205-1.801-1.205-3.005zm10.391-7.473h4.894v11.681 2.145 15.116c.858-3.951 2.747-7.469 5.406-10.048 1.376-1.372 3.523-2.661 6.27-3.864 1.199-.518 2.403-.946 3.775-1.459.088 8.416.429 13.655 1.288 15.973.602 1.544 1.46 2.921 2.491 4.381 1.372 1.801 2.664 2.746 3.952 3.003v-17.003l5.753-5.753v19.925c-4.381 5.836-7.987 8.672-10.908 8.672-1.288 0-2.486-.6-3.517-1.631-2.319-2.319-3.78-5.412-4.466-9.275-.345-1.974-.602-5.496-.602-10.478a30.4 30.4 0 0 1-3.261 2.062c-1.288 1.031-1.889 1.973-1.889 3.092 0 2.575 1.716 6.956 5.066 12.792l-5.925 5.841c-1.372-2.23-2.574-4.548-3.433-6.698v8.761 30.23 29.2h-4.894v-29.2-30.23-33.408-2.145-11.681zm8.841 3.952h24.988v7.128h-24.988v-7.128zm0 44.57h24.988v7.213h-17.002c-.774 1.889-1.287 3.778-1.287 5.756s.603 3.523 1.545 4.722c1.544 1.46 3.951 2.061 7.212 1.805l-5.925 6.097c-3.089.173-5.496-.601-7.041-2.145a6.75 6.75 0 0 1-1.889-4.809c0-1.889.601-4.036 1.889-6.27.943-2.062 2.319-3.779 3.691-5.155h-6.181v-7.213zm0 29.283h18.633s3.607.173 5.408 2.58c1.031 1.628.947 3.947.947 3.947v19.495h-18.289a7.25 7.25 0 0 1-4.638-1.633c-1.372-.943-2.061-2.23-2.061-3.778v-20.611zm6.569 17.591c-.035 1.864.46 1.733 3.391 1.733h8.328v-11.248s.089-1.118-.256-1.375c-.429-.341-.943-.173-3.434-.173h-7.986v10.138l-.042.927z" fill="#0e88d3" fill-rule="evenodd"/><path d="M268.584 348.406l-132.13 65.182 226.658-.429-150.759-17.947 56.231-46.805m-8.844 28.423l.088-1.286 5.753-2.403c-1.224 6.777.666 9.67 7.641 12.228v-95.184h4.978v22.93h2.836s-3.606-9.107 3.345-16.833c7.04-6.097 13.913-.947 13.913-.947s-2.749 4.983-1.461 12.881c1.288 7.385 4.806 7.044 4.806 7.044s4.38-1.031 3.522-6.956c-.947-5.925-6.867-5.495-6.867-5.495l4.377-6.527s4.221 2.48 5.57 8.064l7.483 4.989v7.386l-7.361-5.697a22.03 22.03 0 0 1-.453 2.002c-3.779 14.341-14.598 9.274-17.43-1.372-1.889-7.389 1.716-15.372 1.716-15.372s-9.102 1.027-6.952 14.253c1.283 7.385 4.292 10.048 4.292 10.048H278.2v14.803l2.92-6.214s3.522 3.177 8.155 4.292c4.81.947 5.669-1.115 5.753-2.403-.598-.858-6.35-4.894-6.35-4.894l2.487-2.836 16.058 10.22v7.212l-9.447-7.642c-.057 1.694-.598 4.026-2.67 5.559a9.97 9.97 0 0 1 1.125 3.887c.429 4.549-1.802 7.386-1.802 7.386h12.794v7.469H278.2v16.164l2.92-6.287s3.522 3.349 8.155 4.295c4.81.943 5.669-1.03 5.753-2.406-.598-.686-6.35-4.894-6.35-4.894l2.487-2.836 16.058 10.136v7.297l-9.447-7.469c-.084 2.319-1.2 6.181-6.695 6.867-7.291 1.002-11.62-2.253-12.881-3.381v8.877h29.019v7.473H278.2v3.952h-4.978v-5.452c-10.797-3.085-13.701-6.855-13.481-12.93zm18.459-40.125v13.25h8.416s2.32 0 4.55-4.553c1.045-1.921 1.45-3.89 1.563-5.58a10.51 10.51 0 0 1-1.647.341c-7.29 1.002-11.62-2.31-12.881-3.458z" fill-rule="evenodd" fill="#f47216"/></g></svg>