<svg xmlns="http://www.w3.org/2000/svg" width="2360" height="2360" fill="none" stroke="#000" stroke-width="2" xmlns:v="https://vecta.io/nano"><path d="M1225.87 1637.52l13.61 135.41"/><path d="M1299.16 1696.29l-135.41 13.61m114.61 449.93l13.61 135.42"/><path d="M1351.65 2218.61l-135.41 13.6M1069.86 64.126l13.61 135.415"/><path d="M1143.16 122.902l-135.42 13.609m114.61 449.929l13.61 135.414"/><path d="M1195.65 645.215l-135.42 13.609m687.95 926.206l13.61 135.41"/><path d="M1821.48 1643.8l-135.42 13.61m-980.394 32.6l13.609 135.41"/><path d="M778.959 1748.78l-135.415 13.61m-460.191-19.89l13.608 135.41"/><path d="M256.645 1801.27l-135.414 13.61m1679.439 292.46l13.61 135.42"/><path d="M1873.97 2166.12l-135.42 13.61m-980.393 32.59l13.609 135.42"/><path d="M831.45 2271.1l-135.415 13.6m-460.193-19.89l13.608 135.42"/><path d="M309.135 2323.59l-135.415 13.6M1590.07 11.637l13.61 135.415"/><path d="M1663.36 70.413l-135.41 13.608m-980.401 32.597l13.608 135.414"/><path d="M620.842 175.391L485.427 189M25.236 169.107l13.609 135.414"/><path d="M98.529 227.88l-135.415 13.609M2270.5 1532.54l13.61 135.41"/><path d="M2343.79 1591.31l-135.41 13.61m114.61 449.93l13.61 135.42"/><path d="M2396.28 2113.63l-135.41 13.61M2112.38-40.854l13.61 135.415"/><path d="M2185.67 17.92l-135.41 13.608m-407.7 502.423l13.61 135.414"/><path d="M1715.85 592.726l-135.41 13.609m-980.402 32.596l13.609 135.415"/><path d="M673.331 697.704l-135.414 13.609M77.725 691.42l13.608 135.414"/><path d="M151.017 750.195L15.603 763.804M2164.87 481.461l13.61 135.415"/><path d="M2238.16 540.235l-135.41 13.608m-407.06 508.867l13.61 135.42"/><path d="M1768.99 1121.49l-135.42 13.61m-980.393 32.59l13.609 135.42"/><path d="M726.47 1226.47l-135.415 13.61m-460.192-19.9l13.609 135.42"/><path d="M204.156 1278.96l-135.415 13.61m2149.269-282.35l13.61 135.42"/><path d="M2291.3 1069l-135.41 13.61m-986.725-9.32l21.384 212.794"/><path d="M1287.47 1170.09l-212.79 21.38"/></svg>