<svg xmlns="http://www.w3.org/2000/svg" xmlns:xlink="http://www.w3.org/1999/xlink" width="429" height="428" fill="none" xmlns:v="https://vecta.io/nano"><path d="M181.806 120.409h-6.702l-6.413-17.219.481 4.489c.128 1.282.192 2.811.192 4.585v8.145h-4.681V98.188h6.541l6.574 17.25c-.471-2.928-.706-5.686-.706-8.272v-8.978h4.714v22.221zm23.859 0l-1.155-4.778h-6.477l-1.122 4.778h-5.451l6.701-22.221h6.381l6.702 22.221h-5.579zm-6.734-8.594h4.681l-2.34-9.812-2.341 9.812zm29.11-14.172c1.667 0 3.11.235 4.329.705a9.92 9.92 0 0 1 3.366 2.148l-2.436 2.854c-1.518-1.24-3.143-1.86-4.874-1.86-.919 0-1.646.193-2.181.577-.534.364-.801.898-.801 1.604 0 .491.117.897.352 1.218.236.299.652.588 1.251.866s1.496.609 2.693.994c2.266.727 3.934 1.625 5.002 2.693 1.069 1.048 1.604 2.544 1.604 4.489 0 1.39-.353 2.619-1.058 3.688-.706 1.047-1.721 1.87-3.047 2.469-1.325.577-2.896.866-4.713.866s-3.431-.289-4.842-.866c-1.389-.577-2.586-1.347-3.591-2.309l2.661-2.918c.855.727 1.732 1.272 2.63 1.636.919.363 1.913.545 2.982.545 1.09 0 1.945-.235 2.565-.706.641-.491.962-1.165.962-2.02 0-.556-.118-1.015-.353-1.379-.235-.384-.641-.726-1.218-1.026s-1.411-.62-2.502-.962c-2.458-.748-4.211-1.667-5.258-2.757-1.026-1.09-1.539-2.469-1.539-4.137 0-1.282.342-2.404 1.026-3.366.684-.984 1.635-1.732 2.854-2.245 1.218-.534 2.597-.802 4.136-.802zm30.762 22.766l-1.154-4.778h-6.477l-1.122 4.778h-5.451l6.701-22.221h6.381l6.702 22.221h-5.58zm-6.733-8.594h4.681l-2.34-9.812-2.341 9.812z" fill="#db240b"/><g fill="#fff"><path d="M58.737 134.403v26.349H53.14v-26.349h5.597zm30.04 26.349h-7.196l-8.377-20.904.533 5.102c.152 1.574.228 3.427.228 5.559v10.243h-5.064v-26.349h7.044l8.529 20.942c-.508-3.401-.761-6.524-.761-9.367v-11.575h5.064v26.349zm27.605-26.349l-.609 4.379h-6.664v21.97h-5.597v-21.97h-7.006v-4.379h19.876zm23.158 0l-.61 4.074h-9.519v6.854h8.301v4.036h-8.301v7.273h10.205v4.112h-15.802v-26.349h15.726zm17.413 16.03h-2.856v10.319H148.5v-26.349h8.225c3.528 0 6.181.66 7.958 1.98 1.777 1.294 2.665 3.262 2.665 5.902 0 1.726-.431 3.147-1.295 4.264-.837 1.117-2.145 2.069-3.921 2.856l6.815 11.347h-6.359l-5.635-10.319zm-2.856-3.96h2.932c1.498 0 2.628-.33 3.389-.99.762-.685 1.142-1.751 1.142-3.198 0-1.346-.406-2.323-1.218-2.932-.787-.635-2.031-.952-3.732-.952h-2.513v8.072zm42.238 14.279h-7.197l-8.377-20.904.533 5.102c.152 1.574.229 3.427.229 5.559v10.243h-5.065v-26.349h7.045l8.529 20.942c-.508-3.401-.762-6.524-.762-9.367v-11.575h5.065v26.349zm24.063 0l-1.485-5.902h-8.263l-1.485 5.902h-5.825l8.11-26.349h6.816l8.072 26.349h-5.94zm-8.682-10.052h6.131l-3.084-12.147-3.047 12.147zm37.207-16.297l-.609 4.379h-6.664v21.97h-5.597v-21.97h-7.006v-4.379h19.876zm13.029 0v26.349h-5.597v-26.349h5.597zm20.559-.609c2.412 0 4.494.545 6.245 1.637 1.752 1.066 3.097 2.627 4.036 4.683s1.409 4.544 1.409 7.463c0 2.869-.469 5.344-1.409 7.425-.939 2.057-2.284 3.631-4.036 4.722s-3.833 1.637-6.245 1.637-4.505-.533-6.282-1.599c-1.752-1.091-3.097-2.665-4.036-4.721-.94-2.082-1.409-4.57-1.409-7.464 0-2.843.469-5.292 1.409-7.348.964-2.082 2.322-3.668 4.074-4.76 1.777-1.117 3.858-1.675 6.244-1.675zm0 4.188c-1.929 0-3.388.762-4.378 2.285-.965 1.523-1.447 3.96-1.447 7.31s.495 5.788 1.485 7.311 2.437 2.285 4.34 2.285c1.93 0 3.377-.749 4.341-2.247.965-1.523 1.447-3.972 1.447-7.349s-.482-5.813-1.447-7.31c-.964-1.523-2.411-2.285-4.341-2.285zm40.378 22.77h-7.197l-8.377-20.904.533 5.102c.153 1.574.229 3.427.229 5.559v10.243h-5.065v-26.349h7.045l8.529 20.942c-.508-3.401-.762-6.524-.762-9.367v-11.575h5.065v26.349zm24.063 0l-1.485-5.902h-8.263l-1.485 5.902h-5.825l8.11-26.349h6.816l8.072 26.349h-5.94zm-8.681-10.052h6.13l-3.084-12.147-3.046 12.147zm27.222-16.297v21.856h10.433l-.609 4.493h-15.421v-26.349h5.597zM71.331 247.678c0 4.089-1.575 6.395-5.458 6.395-4.409 0-5.773-2.935-5.773-7.548v-17.193h-7.663v18.346c0 9.331 4.094 14.258 13.541 14.258 9.552 0 13.331-5.137 13.331-14.258v-12.371c0-7.548-.945-10.169-3.779-13.733-3.254-4.089-9.342-9.121-13.121-14.049-1.575-1.991-1.889-3.04-1.889-6.709v-12.79c0-4.089 1.889-6.186 5.563-6.186 4.304 0 5.458 2.936 5.458 7.234v14.677h7.453v-15.725c0-9.54-3.464-14.258-12.806-14.258-9.237 0-13.751 4.613-13.751 14.258v12.895c0 5.766.21 7.863 2.834 11.217 3.044 3.879 9.027 8.911 13.436 14.363 2.099 2.621 2.624 3.669 2.624 8.911v12.266zm37.639-42.983c0 5.347-2.205 7.548-6.823 7.548h-5.564v-29.459h5.459c5.038 0 6.928 2.411 6.928 7.548v14.363zm-12.387 56.297v-40.991h5.564c10.077 0 14.695-4.613 14.695-15.516v-14.153c0-10.903-4.723-15.621-14.8-15.621H88.606v86.281h7.978zm53.288 0l-11.231-86.281h-9.343l-11.861 86.281h7.768l1.889-14.467h12.911l1.89 14.467h7.977zm-21.833-21.806l5.668-44.241 5.354 44.241h-11.022zm46.744 8.073c0 4.613-1.47 6.814-5.354 6.814-3.779 0-5.668-2.306-5.668-6.814V188.55c0-4.508 1.889-6.71 5.668-6.71 4.094 0 5.354 2.097 5.354 6.71v15.201h7.243v-15.306c0-9.75-4.199-14.677-12.597-14.677-9.132 0-13.751 4.927-13.751 14.887v58.709c0 9.749 4.619 14.572 13.751 14.572 8.818 0 12.597-4.718 12.597-14.782v-17.822h-7.243v17.927zm39.95 13.733v-7.862h-15.43v-32.081h10.497v-7.967h-10.497v-30.298h14.905v-8.073h-22.883v86.281h23.408zm55.423 0l-11.232-86.281h-9.342l-11.861 86.281h7.767l1.89-14.467h12.911l1.889 14.467h7.978zm-21.834-21.806l5.669-44.241 5.353 44.241h-11.022z"/><use xlink:href="#B"/><use xlink:href="#B" x="36.452"/><path d="M369.595 247.678c0 4.089-1.574 6.395-5.458 6.395-4.409 0-5.774-2.935-5.774-7.548v-17.193h-7.662v18.346c0 9.331 4.093 14.258 13.541 14.258 9.552 0 13.331-5.137 13.331-14.258v-12.371c0-7.548-.945-10.169-3.779-13.733-3.254-4.089-9.342-9.121-13.121-14.049-1.575-1.991-1.89-3.04-1.89-6.709v-12.79c0-4.089 1.89-6.186 5.564-6.186 4.303 0 5.458 2.936 5.458 7.234v14.677h7.453v-15.725c0-9.54-3.464-14.258-12.806-14.258-9.238 0-13.751 4.613-13.751 14.258v12.895c0 5.766.21 7.863 2.834 11.217 3.044 3.879 9.027 8.911 13.436 14.363 2.099 2.621 2.624 3.669 2.624 8.911v12.266zM63.634 275.161c2.944-.073 5.808.958 8.029 2.891l-2.965 3.538a9.72 9.72 0 0 0-2.319-1.366 6.46 6.46 0 0 0-2.461-.455 4.92 4.92 0 0 0-2.404.572 4.93 4.93 0 0 0-1.823 1.667c-1.009 1.502-1.516 3.811-1.52 6.928s.502 5.4 1.52 6.848c.471.703 1.114 1.274 1.868 1.659s1.593.572 2.439.543a6.28 6.28 0 0 0 2.627-.529 15.43 15.43 0 0 0 2.547-1.6l2.781 3.575c-1.044 1.037-2.27 1.871-3.618 2.461-1.459.649-3.042.974-4.639.954-2.224.052-4.421-.5-6.355-1.6-1.846-1.116-3.316-2.76-4.221-4.719a17.64 17.64 0 0 1-1.489-7.567 16.76 16.76 0 0 1 1.544-7.445 11.08 11.08 0 0 1 4.257-4.719 11.89 11.89 0 0 1 6.202-1.636h0zm41.522 27.015v-11.302h-7.912v11.302H91v-26.369h6.245v10.2h7.912v-10.2h6.239v26.369h-6.239zm41.313 0l-1.366-5.673h-7.684l-1.335 5.673h-6.466l7.949-26.369h7.573l7.949 26.369h-6.62zm-7.998-10.201h5.537l-2.781-11.64-2.756 11.64zm39.037-16.168v21.404h10.274l-.615 4.922H171.3v-26.326h6.208zm35.751 0v21.404h10.269l-.616 4.922h-15.891v-26.326h6.238zm45.681 0l-.652 4.454h-9.278v6.312h8.103v4.381h-8.103v6.731h9.93v4.491h-16.168v-26.369h16.168zm40.415 26.369h-7.949l-7.61-20.432.572 5.328.228 5.438v9.666h-5.537v-26.369h7.758l7.801 20.469c-.541-3.254-.821-6.546-.837-9.844v-10.625h5.593l-.019 26.369zm32.571-27.015c3.23-.058 6.365 1.097 8.785 3.236l-3.156 3.31a10.68 10.68 0 0 0-2.627-1.52 6.99 6.99 0 0 0-2.738-.498 5.58 5.58 0 0 0-2.629.577c-.816.405-1.521 1.003-2.052 1.742-1.161 1.526-1.744 3.848-1.748 6.965 0 3.371.443 5.769 1.329 7.192.442.687 1.059 1.243 1.789 1.611s1.543.534 2.358.481c1.246.015 2.476-.286 3.574-.874v-5.974h-3.42l-.616-4.417h10.084v13.049c-1.4.904-2.926 1.597-4.528 2.055-1.597.476-3.255.721-4.922.726-4.003 0-7.022-1.167-9.056-3.501s-3.048-5.783-3.039-10.348c-.071-2.581.488-5.141 1.63-7.457 1.02-1.978 2.593-3.618 4.528-4.719 1.971-1.1 4.197-1.664 6.454-1.636zm45.515.646l-.615 4.454h-9.315v6.312h8.109v4.381h-8.109v6.731h9.93v4.491h-16.168v-26.369h16.168z"/><g fill-rule="evenodd"><use xlink:href="#C"/><path d="M332.644 71.63c-11.848 0-21.452 9.604-21.452 21.451s9.604 21.451 21.452 21.451 21.451-9.604 21.451-21.451-9.604-21.451-21.451-21.451zm-28.3 21.451c0-15.629 12.67-28.299 28.3-28.299s28.299 12.67 28.299 28.299-12.67 28.299-28.299 28.299-28.3-12.67-28.3-28.299z"/><path d="M344.694 13.304c1.692.845 2.378 2.902 1.533 4.593l-32.776 65.595c-.846 1.692-2.902 2.378-4.594 1.532s-2.377-2.902-1.532-4.593l32.776-65.595c.845-1.692 2.902-2.378 4.593-1.532zm9.573 28.104c1.592 1.022 2.053 3.14 1.032 4.731l-15.588 24.276c-1.022 1.591-3.14 2.053-4.731 1.031s-2.053-3.14-1.032-4.731l15.588-24.276c1.022-1.591 3.14-2.053 4.731-1.031z"/><use xlink:href="#C"/><path d="M384.317 71.459c1.022 1.591.559 3.71-1.032 4.731l-24.276 15.579c-1.592 1.021-3.71.559-4.731-1.032s-.559-3.71 1.032-4.731l24.276-15.579c1.592-1.021 3.71-.559 4.731 1.032zm-8.327-21.724c1.337 1.337 1.337 3.505 0 4.842l-23.334 23.335c-1.337 1.337-3.505 1.337-4.843 0s-1.337-3.505 0-4.842l23.335-23.335c1.337-1.337 3.505-1.337 4.842 0zM76.861 319.198c1.468-1.192 3.624-.969 4.816.499a167.55 167.55 0 0 0 58.032 45.643 167.54 167.54 0 0 0 144.032 0c22.497-10.71 42.323-26.303 58.032-45.643 1.192-1.468 3.349-1.691 4.817-.499s1.691 3.349.498 4.817a174.4 174.4 0 0 1-60.403 47.508c-23.417 11.147-49.025 16.932-74.96 16.932s-51.543-5.785-74.959-16.932-44.053-27.378-60.404-47.508c-1.192-1.468-.969-3.624.499-4.817zM186.558 41.395a174.43 174.43 0 0 1 129.315 32.676c1.517 1.129 1.832 3.274.703 4.791s-3.275 1.831-4.792.702a167.58 167.58 0 0 0-234.335 34.175c-1.131 1.516-3.277 1.827-4.792.696s-1.827-3.277-.695-4.793a174.43 174.43 0 0 1 114.596-68.247z"/></g></g><defs ><path id="B" d="M298.493 204.695c0 5.347-2.205 7.548-6.823 7.548h-5.564v-29.459h5.459c5.038 0 6.928 2.411 6.928 7.548v14.363zm-12.387 56.297v-40.991h5.564c10.077 0 14.695-4.613 14.695-15.516v-14.153c0-10.903-4.723-15.621-14.8-15.621h-13.436v86.281h7.977z"/><path id="C" d="M412.421 81.031c.846 1.692.159 3.748-1.532 4.593L345.294 118.4c-1.692.846-3.749.16-4.594-1.532s-.159-3.748 1.533-4.593l65.595-32.777c1.692-.845 3.748-.159 4.593 1.532z"/></defs></svg>