<svg width="898" height="197" viewBox="0 0 898 197" fill="none" xmlns="http://www.w3.org/2000/svg">
<path d="M588.65 5.2V35.59H582.7V5.2H571V0H600.34V5.2H588.65Z" fill="white"/>
<path d="M601.15 25.75V10.2H606.85V25.25C606.85 29.8 608.8 31.6 612 31.6C615.25 31.6 617.8 29.15 617.8 24.3V10.2H623.5V35.59H618.1V32.29H618C616.4 34.59 613.75 36.19 610.4 36.19C604.65 36.2 601.15 32.7 601.15 25.75Z" fill="white"/>
<path d="M645.55 10.1V15.15C644.85 15 644.2 14.95 643.55 14.95C639 14.95 636.5 17.85 636.5 23.15V35.6H630.8V10.21H636.1V13.96H636.2C637.9 11.21 640.3 9.86 643.45 9.86C644.1 9.85 644.9 9.94999 645.55 10.1Z" fill="white"/>
<path d="M665.35 35.6L655.45 23.3H655.35V35.6H649.65V0.00999451H655.35V20.6H655.45L664.7 10.2H671.35L660.85 21.8L672.55 35.6H665.35Z" fill="white"/>
<path d="M675.25 5.45V0H680.95V5.45H675.25ZM675.25 35.6V10.21H680.95V35.6H675.25Z" fill="white"/>
<path d="M707.29 18.1H701.79C701.79 15.05 699.99 13.6 696.94 13.6C694.29 13.6 692.74 14.75 692.74 16.6C692.74 18.8 694.49 19.25 698.49 20.25C703.14 21.45 708.09 22.55 708.09 28.6C708.09 33.2 703.99 36.35 697.44 36.35C690.64 36.35 686.49 33.3 686.44 27.25H692.24C692.24 30.35 694.14 32.1 697.54 32.1C700.44 32.1 702.14 30.85 702.14 28.95C702.14 26.35 700.14 25.85 695.74 24.75C691.49 23.7 687.04 22.75 687.04 17.05C687.04 12.55 691.04 9.45 696.99 9.45C703.45 9.45 707.24 12.45 707.29 18.1Z" fill="white"/>
<path d="M719.5 13.2C721.3 10.75 723.95 9.59999 726.8 9.59999C732.55 9.59999 736.05 13.1 736.05 20.05V35.6H730.35V20.55C730.35 16 728.4 14.2 725.2 14.2C721.95 14.2 719.4 16.65 719.4 21.5V35.6H713.7V0.00999451H719.4V13.21H719.5V13.2Z" fill="white"/>
<path d="M598.34 70.95H592.29C592.29 66.45 589.74 64.15 585.14 64.15C581.29 64.15 578.89 66 578.89 68.9C578.89 72.15 581.34 73.15 587.04 74.55C593.74 76.2 599.34 77.95 599.34 85.45C599.34 92.05 594.04 96.35 586.04 96.35C577.44 96.35 572.19 92 572.19 83.85H578.34C578.34 88.95 581.14 91.4 586.09 91.4C590.54 91.4 593.14 89.35 593.14 86C593.14 82.4 590.54 81.6 585.09 80.25C578.34 78.55 572.74 76.9 572.74 69.45C572.74 63.4 577.69 59.25 585.24 59.25C593.9 59.26 598.34 63.3 598.34 70.95Z" fill="white"/>
<path d="M628.94 82.9C628.94 91 624.84 96.2 618.39 96.2C615.24 96.2 612.39 94.75 610.94 92.3H610.84V104.85H605.14V70.21H610.69V73.71H610.79C612.29 71.11 615.14 69.56 618.34 69.56C624.79 69.55 628.94 74.8 628.94 82.9ZM610.55 82.9C610.55 88.4 613 91.8 616.7 91.8C620.55 91.8 623 88.3 623 82.9C623 77.5 620.55 74 616.7 74C613 74 610.55 77.35 610.55 82.9Z" fill="white"/>
<path d="M654.45 79.4V88.9C654.45 91.9 654.7 94 655.1 95.6H649.95C649.7 94.5 649.6 93.25 649.6 92.05H649.5C647.65 94.75 644.8 96.15 640.95 96.15C635.65 96.15 632.35 92.95 632.35 88.6C632.35 84.45 634.8 81.75 642.1 80.6C644.15 80.25 647.15 79.95 648.95 79.85V78.85C648.95 75.1 646.9 73.6 644 73.6C640.85 73.6 639.15 75.35 639 78.05H633.4C633.65 73.25 637.15 69.45 644 69.45C650.7 69.45 654.45 72.75 654.45 79.4ZM648.95 83.55C647.25 83.65 644.8 83.9 643.1 84.2C639.45 84.8 638.1 85.9 638.1 88.2C638.1 90.45 639.7 91.95 642.6 91.95C644.35 91.95 646.05 91.4 647.2 90.25C648.55 88.85 648.95 87.5 648.95 84.8V83.55Z" fill="white"/>
<path d="M683.49 79.4H677.54C677.29 76.1 675.14 73.95 672.04 73.95C668.04 73.95 665.69 77.35 665.69 82.9C665.69 88.45 668.04 91.85 672.04 91.85C675.14 91.85 677.24 89.4 677.49 85.95H683.49C682.99 92.1 678.59 96.35 672.04 96.35C664.54 96.35 659.69 91.15 659.69 82.9C659.69 74.65 664.54 69.45 672.04 69.45C678.54 69.45 682.99 73.6 683.49 79.4Z" fill="white"/>
<path d="M705.54 87.95H711.39C710.44 92.5 706.34 96.35 699.69 96.35C691.94 96.35 687.39 90.8 687.39 82.6C687.39 75.1 691.89 69.45 699.59 69.45C705.39 69.45 709.59 72.8 710.99 78.1C711.49 79.7 711.69 81.6 711.69 84.05H693.04C693.24 89.8 696.14 92.15 699.69 92.15C702.94 92.15 705.04 90.4 705.54 87.95ZM693.15 80.3H706C705.6 75.85 703 73.65 699.6 73.65C696.15 73.65 693.65 75.9 693.15 80.3Z" fill="white"/>
<path d="M734.9 85.95L731.6 95.6H725.3L738.25 60.01H746.3L759.25 95.6H752.95L749.65 85.95H734.9ZM746.89 77.95C745.29 73.2 743.74 68.55 742.29 63.8H742.19C740.74 68.55 739.29 73.2 737.64 77.95L736.69 80.75H747.84L746.89 77.95Z" fill="white"/>
<path d="M779.14 73.75H779.24V70.2H784.64V93.99C784.64 101.59 780.24 105.24 773.09 105.24C766.29 105.24 762.44 102.19 762.19 97.19H767.89C768.04 99.64 769.99 101.04 773.19 101.04C776.99 101.04 779.09 99.09 779.09 93.79V91.29H778.99C777.14 93.99 774.79 95.29 771.64 95.29C765.19 95.29 761.09 90.29 761.09 82.39C761.09 74.54 765.24 69.49 771.74 69.49C774.9 69.5 777.25 70.85 779.14 73.75ZM767.05 82.4C767.05 87.4 769.4 90.6 773.05 90.6C776.9 90.6 779.3 87.4 779.3 82.4C779.3 77.45 776.9 74.25 773.05 74.25C769.4 74.25 767.05 77.4 767.05 82.4Z" fill="white"/>
<path d="M808.34 87.95H814.19C813.24 92.5 809.14 96.35 802.49 96.35C794.74 96.35 790.19 90.8 790.19 82.6C790.19 75.1 794.69 69.45 802.39 69.45C808.19 69.45 812.39 72.8 813.79 78.1C814.29 79.7 814.49 81.6 814.49 84.05H795.84C796.04 89.8 798.94 92.15 802.49 92.15C805.74 92.15 807.84 90.4 808.34 87.95ZM795.95 80.3H808.79C808.39 75.85 805.79 73.65 802.39 73.65C798.95 73.65 796.45 75.9 795.95 80.3Z" fill="white"/>
<path d="M842.39 80.05V95.6H836.69V80.55C836.69 76 834.74 74.2 831.54 74.2C828.29 74.2 825.74 76.65 825.74 81.5V95.6H820.04V70.21H825.44V73.51H825.54C827.14 71.21 829.79 69.61 833.14 69.61C838.89 69.6 842.39 73.1 842.39 80.05Z" fill="white"/>
<path d="M871.49 79.4H865.54C865.29 76.1 863.14 73.95 860.04 73.95C856.04 73.95 853.69 77.35 853.69 82.9C853.69 88.45 856.04 91.85 860.04 91.85C863.14 91.85 865.24 89.4 865.49 85.95H871.49C870.99 92.1 866.59 96.35 860.04 96.35C852.54 96.35 847.69 91.15 847.69 82.9C847.69 74.65 852.54 69.45 860.04 69.45C866.54 69.45 870.99 73.6 871.49 79.4Z" fill="white"/>
<path d="M887.49 96.7C885.09 103.15 882.29 105.1 876.39 105.1C875.29 105.1 874.29 104.95 873.54 104.75V100.1C874.19 100.3 875.04 100.45 875.94 100.45C879.04 100.45 880.39 99.3 881.59 95.8L872.29 70.21H878.39L884.74 89.11H884.84L891.39 70.21H897.29L887.49 96.7Z" fill="white"/>
<path d="M321.22 113.98C317.47 139.66 300.08 154.65 273.09 154.65C242.46 154.65 224.18 135.35 224.18 103.04V0.59H0V47.81H59.19V189.89H118.22V47.81H165.16V108.99C165.16 164.53 204.5 196.38 273.1 196.38C331.38 196.38 368.53 173.38 378.39 132.4L322.52 114.41L322.13 114.28L321.22 113.98Z" fill="#E1251B"/>
<path d="M430.38 0H321.22V113.98L380.77 94.63V32.55L417.26 82.77L476.3 63.59L430.38 0Z" fill="#E1251B"/>
<path d="M499.14 94.65L476.3 63.59L439.81 113.81L494.66 189.3H567.91L499.14 94.65Z" fill="#E1251B"/>
</svg>
