<svg xmlns="http://www.w3.org/2000/svg" width="2360" height="2360" fill="none" xmlns:v="https://vecta.io/nano"><g clip-path="url(#A)"><path fill="#fff" d="M0 0h2360v2360H0z"/><g stroke="#000" stroke-width="2" stroke-miterlimit="10"><path d="M2167.29 554.805l112.51 4.891 64.04-46.249-117.18-184.328-3.12 5.559-56.25 220.127zm-695.74 32.251l8.45 174.323 65.15 39.134 46.47-3.113 120.07-127.63 44.47-106.728-284.61 24.014zM-49.095 366.026l248.144 118.735L33.175 169.245-8.182 136.56-49.095 366.026zM1699.68 2028.99l227.69 127.41h56.03l-24.68-248.81-102.95-62.04-156.09 183.44zM2005.87 95.438l120.51 133.41 96.5 18.9 54.03-35.354 22.24-173.211-244.59-127.407-48.69 183.661zM1372.39 2287.8l1.33 8 155.65 244.59 222.35-76.05-4.45-189.22-185.22-164.09-189.66 176.77z"/><path d="M1854.67 1842.66l1.12 2.89 102.94 62.03 142.53-52.47 73.82-74.04-34.69-120.96-177.88-20.9-57.59 14-50.25 189.45zm-211.9-1667.627l44.47 191.222 133.41 151.198h12.67l72.71-123.627-2-7.782-204.79-270.156-56.47 59.145zm-635.48 421.126l57.81 218.126 138.3 177.881 44.47 39.574 20.68-8.45 16.68-94.939-126.97-321.074-20.45-36.243-130.52 25.125zM634.851 1035.31l238.137 73.38 81.381-195.003-16.01-302.396-232.356 66.705-71.152 357.314zm1667.629 204.78l34.24 51.59 155.65-17.34 217.46-121.18 4.44-120.74-155.64-41.135-256.15 248.805z"/><path d="M1283.45 310.44l1.77 125.183 32.02 14.675 370.66-84.048-44.47-191.222-219.68-8.894-88.94 49.807-51.36 94.499zM221.049 929.688l36.465 305.062 309.735-148.08 27.349-30.24-270.823-270.602-102.726 143.86zm-824.24 608.802l545.204-102.06 60.035-107.17-131.187-133.41-287.277 77.16-186.775 265.48zM1966.96 635.081l52.69 236.137 65.15 83.159 222.35-169.431-53.14-120.514-150.75-65.149-136.3 35.798zM1724.59-70.677l18.01 139.858 93.38 34.02 169.88-7.783 48.92-183.884-37.36-210.788-55.81-37.355-160.31 109.174-34.24 37.577-36.47 96.501-6 22.68zM1302.36 1038.19l36.24 201.89 15.12 47.36 211.46-55.59-229.02-184.77-33.8-8.89z"/><path d="M1304.57 1399.06l225.69 37.13 140.08-130.07 3.34-18.01-108.51-56.26-211.46 55.59-49.14 111.62zm-737.988 399.79l239.25 171.65 24.458-78.71-183.439-142.97-80.269 50.03zm-194.556 423.58l243.251 105.39-30.239-129.85-213.012 24.46zM1683.46 877.879l25.13 47.138 190.11-49.139-155.65-91.831-59.59 93.832z"/><path d="M585.039 2197.97l30.24 129.85 54.031 113.4 194.779-349.09-63.147-73.82-164.317 32.46-51.586 147.2zm1748.121-786.23l181.44 205.9 111.18-27.35 6.67-226.13-141.42-88.94-155.64 17.34-2.23 119.18zM1423.09 166.136l219.68 8.894 56.48-58.701 43.36-47.583-18.01-139.859-269.27 22.235-32.24 215.013zm678.17 1688.974l74.71 243.48 123.18-35.36 39.58-209.67-163.65-72.71-73.82 74.26zm-1057.28-265.94l169.44 144.97 295.5-200.11 22.23-98.28-225.68-37.13-132.08 36.68-122.29 105.18-7.12 48.69z"/><path d="M2299.14 2063.22l20.68 17.35 273.93-87.16 1.78-5.34-103.17-174.1-14.01-13.34-138.97 52.92-40.24 209.67zM539.679 250.625L838.74 272.86l68.484-109.397-124.961-311.291L675.757-29.092 539.679 250.625zm27.576 836.055l81.825 287.5 308.178-5.56-52.919-236.36-31.796-24.24-238.138-73.37-40.245 22.23-26.905 29.8zm941.645 447.81l109.18 183.66 176.32-163.2-13.79-64.71-111.17-184.1-140.08 130.07-20.46 98.28zm392.91 822.9l172.77 98.51 52.7-30.47-68.93-244.58-66.71-18.9-89.83 195.44zm-339.97-245.46l185.22 164.09 180.32-119.62-227.68-127.41-116.74 28.69-21.12 54.25z"/><path d="M1615.41 1740.82l239.25 101.84 49.8-189.45-110.06-98.27-176.32 163.2-2.67 22.68zM878.763 335.571l85.605 261.04h42.912l130.08-25.126 147.86-135.412-1.78-125.183-122.29-55.143-282.387 79.824z"/><path d="M400.71 436.51l305.287 241.25 232.356-66.705 26.015-15.787-85.605-259.705-40.023-60.924-299.061-22.235-99.613 55.365L400.71 436.51zm381.557-582.994l124.961 311.291 114.062-23.347 48.92-123.405-136.745-345.088-104.282 48.917-46.916 131.632zM-261.435 485.434l57.811 116.957 408.013-113.399-5.336-3.78-248.144-119.18-115.622 10.673-96.722 108.729zM2258.01 1138.92l241.25-258.596-19.12-91.608-222.13 350.204zM-264.779 904.127l90.497 115.843L62.521 846.983l61.591-168.097-322.186 28.016-66.705 197.225zM2093.7 2165.74l241.47 137.19 29.35-157.87-44.47-64.48-20.68-17.34-123.18 35.35-82.49 67.15zm-880.28-431.58l30.68 55.81 253.26 75.6 118.07-124.74 2.67-22.23-109.18-183.66-295.5 199.22zm315.5-786.916l153.42 38.022 26.24-60.257-25.12-47.138-91.84-80.491-46.47 3.113-16.23 146.751zm417.8-337.296l20.23 25.125 136.75-35.798 63.59-44.47 56.26-220.128-276.83 275.271zm276.16-363.316l3.78 81.602 117.18 185.218 48.47 17.121 69.59-96.5-8.67-48.472-57.14-143.416-23.79-13.564-95.39-16.454-54.03 34.465zM1836 103.22l68.04 283.275 2 7.782 220.35-165.651-120.51-133.41L1836 103.22zm181.42-402.459l37.36 210.788 244.58 127.407 111.18-179.882-133.41-144.527-259.71-13.786zM938.368 611.277l16.009 302.396 79.603-18.899 31.13-80.491-57.81-218.126h-42.917l-26.015 15.12zM-257.895 2133.04h20.011l400.231-51.14-8.671-118.96-164.317-146.53-203.229 133.41-44.025 183.22z"/><path d="M2254.45 664.424l53.14 120.514 167.43-36.465 35.35-40.023-118.06-177.881-48.48-17.121-64.03 46.249-25.35 104.727zM202.157 2129.48l18.011 82.05 152.977 10.9 213.012-24.46 51.585-148.09-117.179-44.47-318.406 124.07zM1336.15 1047.09l228.57 185.89 108.51 56.25 46.03-48.91-10.23-41.36-210.79-224.352-162.09 72.482zM1053.32 2565.3l17.12 22.23 303.29-291.72-1.34-8.01-133.41-88.94L1066 2392.08l-12.68 173.22zM36.719 2403.42l143.194 382.89 88.94-128.29 50.252-233.69-101.392-164.32-180.994 143.41z"/><path d="M1669.67 1306.13l111.18 184.11 210.56-44.47 13.57-290.39-285.06 84.05-46.02 48.91-4.23 17.79zM933.461-327.701L1069.32 17.388l172.76 34.909L1287.67-271l-111.18-156.98-79.82 11.562-155.649 80.936-7.56 7.782zm778.229 996.793l32.24 114.288 155.64 91.831 120.96-4.669-52.69-236.137-20.24-25.125-113.4-92.053h-12.67l-64.04 44.47-45.8 107.395zM1158.26 2117.7l82.5 80.5 133.41 88.94 189.44-175.88 21.12-54.26-85.6-192.11-253.26-75.6-87.61 328.41zm340.41-1144.213l210.79 224.353-27.12-212.569-153.43-38.022-30.24 26.238zM1070.43 2587.54l6.9 63.59 57.36 97.39 111.18 27.13h22.23l218.57-49.59 42.92-185.66-155.65-244.59-303.51 291.73z"/><path d="M1991.19 1445.54l4.45 6.01 214.12 76.71 123.4-116.51 3.56-120.07-33.13-52.26-74.71-65.14-128.07-80.94-94.95 61.15-14.67 291.05zm-2091.204 203.02l88.941 167.2 164.318 146.53 75.599-116.06 49.584-305.07-144.75-208.56-133.411-3.34-58.923 107.17-10.895 30.02-30.462 182.11zM1137.35 571.037l20.46 36.243 285.28 173.434 36.91-19.345-8.45-174.323-154.31-136.745-32.02-14.675-147.87 135.411zM503.438 1590.29l162.094-22.23-16.009-193.89-115.845 42.02-30.24 174.1zm-5.993 230.13l22.235 185.88 117.179 44.47 164.317-32.46 4.892-46.92-239.25-171.65-58.7 3.33-10.673 17.35z"/><path d="M800.941 2017.42l63.147 73.82 111.175 44.48 182.327-18.9 86.72-327.75-30.69-55.81-169.43-144.97-55.363 30.46-158.536 273.27-24.459 78.71-4.891 46.69zM1833.33 517.903l113.4 92.054 276.82-274.381 3.12-5.559-3.78-83.381-96.5-18.9-220.35 165.651-72.71 124.516zm251.47 436.473l14.9 139.634 128.07 80.94 30.24-36.02 222.35-350.205-5.11-40.246-167.43 36.466-223.02 169.431zm-2259.076 65.584l44.47 175.88L1.381 1329.25l133.411 3.34 117.401-91.39 6.448-6.45-36.465-305.061-159.648-82.715-236.804 172.986zM1747.06 2276.02l4.45 189.22h2.89l147.42-108.73 90.49-194.56-8.89-6.67h-56.03l-180.33 120.74zM646.859 1748.84l182.549 142.97 158.314-272.16-296.171-36.47-44.692 165.66zM287.754 3.593l111.175 241.473 40.691 62.703 99.613-57.144L675.756-29.092 405.155-97.799 287.754 3.593zm1815.936 595.69l150.75 65.149 25.35-104.727-112.51-4.892-63.59 44.47zM1699.25 116.33l204.78 270.156-68.04-283.275-93.39-34.464-43.35 47.583zm-826.262 992.34l31.796 24.24L1247.2 1031.3l-44.47-39.582-169.43-96.278-79.599 18.899-80.713 194.331zM2262.01 2475.48l46.47 88.94 22.23 22.23 203.45-41.8 41.36-210.79-3.33-11.56-230.36 13.12-79.82 139.86z"/><path d="M62.515 846.976l158.536 82.937 102.726-143.861-46.249-270.823-152.755 163.427-62.258 168.32zM33.179 169.24l165.874 315.515 5.336 3.78 72.486 26.682 123.183-78.712 39.356-128.741-40.691-62.703L33.179 169.24zm-271.054 1963.14l268.599 273.49 6.003-2.22 180.548-143.64 1.779-48.48-16.899-82.04-39.133-48.25-400.898 51.14zm2573.035 170.54l7.12 32.47 230.35-13.12 6.23-20.68-126.08-141.42-88.94-15.12-28.68 157.87zM251.079 1241.21l282.163 174.99 115.844-42.03-81.825-287.5-309.734 148.09-6.448 6.45zm1707.651 666.38l24.68 248.59 8.89 6.67 66.71 18.9 35.35-16.01 82.27-66.7-74.71-243.48-143.19 52.03zM1317.25 450.294l154.32 136.746 285.05-24.014 64.04-44.47-133.41-151.199-370 82.937zm274.38 347.096l91.83 80.491 60.48-93.832-32.24-114.955-120.07 128.296zM-363.946 2188.41l117.401 300.84 79.601 25.35 197.67-107.84-268.6-273.5h-20.011l-106.061 55.15zm1861.296-322.84l85.6 192.11 116.74-28.69 155.64-183.44-1.11-2.89-239.25-101.83-117.62 124.74zm-1268.506-19.34l268.599-25.8 10.451-18.23-40.913-199.22-188.553-62.49-49.584 305.74zM1021.29 140.798l139.86 114.51 122.3 55.143 51.36-94.499-91.83-163.65-173.66-34.909-48.03 123.405zM904.777 1132.91l53.364 236.36 92.499 171.65 122.29-105.17 25.35-114.96 48.47-289.05-341.973 101.17z"/><path d="M2058.35 2181.08l68.93 244.59 134.74 50.03 80.27-140.08-7.11-32.47-241.48-137.19-35.35 15.12zm-790.23-1158.89l34.24 16.01 33.79 8.89 162.1-72.482 30.24-26.238 16.23-146.751-65.15-39.134-36.91 19.345-158.31 146.529-16.23 93.831zm414.23-36.917l27.13 212.567 10.23 41.36 285.05-84.05 94.94-61.15-14.89-139.634-65.15-83.159-120.96 4.67-190.11 49.139-26.24 60.257zm-509.86 450.487l132.07-36.69 49.14-111.17-15.12-47.36-140.74 80.71-25.35 114.51zM838.745 273.537l40.023 60.924 282.382-79.157-139.86-114.511-114.061 23.347-68.484 109.397zM1962.07 1639.22l177.88 20.9 69.37-131.85-214.12-76.72-33.13 187.67zM894.55 2452.34l158.76 112.96 13.56-173.88-103.614-111.17-68.706 172.09zM-94.672-62.889l86.494 200.116 41.357 32.686 366.212 75.821L288.215 4.26 21.395-158.945-94.672-62.889zM963.273 2279.59l103.617 111.17 172.99-193.22-81.61-79.82-182.323 18.9-12.674 142.97z"/><path d="M1197.85 1320.8l140.75-80.71-36.25-201.9-34.24-16.01-20.68 8.45-49.58 290.17zm-163.88-426.011l169.44 96.278-138.31-177.88-31.13 81.602zm746.88 595.441l13.78 64.71 110.07 98.28 57.58-14.01 33.58-187.67-4.45-6-210.56 44.69zM217.271 2260.01l101.391 164.32 336.195 54.48 13.785-18.23v-19.35l-54.031-113.4-243.251-105.39-152.978-10.9-1.111 48.47zm249.709-657.04l40.913 200.11 58.7-3.33 81.158-50.03 44.47-165.65-26.904-14.46-162.094 22.24-36.243 11.12zm202.114 857.6l225.908-8.22 68.706-172.77 11.785-142.97-111.176-44.47-195.223 349.09v19.34zM1242.97 52.287l91.83 163.65 88.94-49.806 32.24-215.013-91.83-153.422-28.01-36.466-47.14-32.24-46.03 323.297zM153.236 1962.29l8.672 118.96 40.245 48.25 318.406-123.18-22.235-185.89-269.489 25.79-75.599 116.07zM1158.26 607.274l126.97 319.963 158.31-146.529-285.28-173.434zM21.606-159.608L288.427 3.597 405.828-97.794l127.629-272.38-73.375-62.258-302.397 174.1L21.606-159.83v.222zM1754.38 2466.13l176.77 133.41 143.41-142.75-172.76-98.5-147.42 107.84z"/><path d="M133.672 1332.6l144.75 208.56 188.553 61.82 36.466-13.35 29.795-174.1-282.163-174.32-117.401 91.39zm2094.088-157.67l74.71 65.15 254.37-248.143-57.59-111.176L2258 1139.36l-30.24 35.57zm49.14-962.76l95.39 16.454 246.81-245.92-92.05-81.825-64.93-37.355-51.36-4.447-111.18 179.882-22.68 173.211zm-136.51 1447.95l34.68 120.96 163.65 72.48 138.97-52.92 36.91-182.99-181.44-205.9-123.4 116.51-69.37 131.86zm179.44 420.45l44.47 64.48 88.94 15.12 138.75-138.97 2.22-27.8-274.38 87.17zM-203.633 602.397l4.447 104.949 323.298-28.238L276.867 515.68l-72.486-26.682-408.014 113.399zm481.16-87.169l46.249 270.601 270.823 270.601 40.245-22.24 71.152-357.536-305.287-240.138-123.182 78.712zM649.53 1374.84l16.009 193.89 26.904 14.45 296.171 36.47 55.366-30.46 6.23-48.25-92.058-171.66-308.622 5.56z"/></g></g><defs><clipPath id="A"><path fill="#fff" d="M0 0h2360v2360H0z"/></clipPath></defs></svg>